<svg width="20" height="20" viewBox="0 0 20 20" fill="none" xmlns="http://www.w3.org/2000/svg">
<g clip-path="url(#clip0_0_121)">
<path d="M9.91675 18.4637V17.1331C9.91675 16.457 9.39213 15.9433 8.77696 15.8743C5.20228 15.4732 2.41675 12.4282 2.41675 8.75004C2.41675 4.79759 5.63096 1.58337 9.58341 1.58337C13.5359 1.58337 16.7501 4.79759 16.7501 8.75004C16.7501 12.5372 14.0965 16.4511 10.0331 18.4076L10.0325 18.4079L9.91675 18.4637Z" stroke="#017EFA" stroke-width="1.5"/>
<path d="M10.2167 11.5392H8.95005V12.9498H10.2167V11.5392Z" fill="#017EFA"/>
<path d="M8.95005 10.4812H10.2167C10.2167 8.89418 12.1167 8.71784 12.1167 6.95451C12.1167 5.39573 10.983 4.13318 9.58338 4.13318C8.18372 4.13318 7.05005 5.39573 7.05005 6.95451H8.31672C8.31672 6.17865 8.88672 5.54385 9.58338 5.54385C10.28 5.54385 10.85 6.17865 10.85 6.95451C10.85 8.36518 8.95005 8.18885 8.95005 10.4812Z" fill="#017EFA"/>
</g>
<defs>
<clipPath id="clip0_0_121">
<rect width="20" height="20" fill="white"/>
</clipPath>
</defs>
</svg>
