<svg width="34" height="34" viewBox="0 0 34 34" fill="none" xmlns="http://www.w3.org/2000/svg">
<rect x="0.5" y="0.5" width="33" height="33" rx="9.5" stroke="#484851"/>
<path d="M22.4746 19.4612L22.4746 19.4612L22.4766 19.4645C22.682 19.8016 22.7167 20.1935 22.5819 20.5514C22.4427 20.9208 22.1604 21.1931 21.7996 21.3117L21.7996 21.3117L21.7954 21.3131C20.2584 21.8281 18.639 22.0826 17.017 22.0826C15.395 22.0826 13.777 21.8281 12.2419 21.3059L12.2404 21.3053C11.8082 21.1593 11.5266 20.8751 11.4148 20.563L11.4148 20.563L11.4126 20.5571C11.2912 20.2269 11.3218 19.8463 11.5516 19.4604C11.552 19.4598 11.5523 19.4593 11.5527 19.4587L12.3921 18.0707L12.3922 18.0707L12.3982 18.0605C12.5317 17.8316 12.636 17.5413 12.7064 17.2825C12.7766 17.0241 12.8337 16.7213 12.8337 16.4576V14.3492C12.8337 12.0459 14.7071 10.1659 17.017 10.1659C19.327 10.1659 21.2004 12.0459 21.2004 14.3492V16.4576C21.2004 16.7213 21.2574 17.024 21.3274 17.2827C21.3979 17.5431 21.5013 17.8318 21.6314 18.0611L21.6362 18.0696L21.6413 18.0779L22.4746 19.4612Z" stroke="#C0C0D6" stroke-width="1.5"/>
<mask id="path-3-inside-1_0_140" fill="white">
<path d="M18.8753 9.7665C18.3003 9.5415 17.6753 9.4165 17.017 9.4165C16.367 9.4165 15.742 9.53317 15.167 9.7665C15.5253 9.0915 16.2337 8.6665 17.017 8.6665C17.8087 8.6665 18.5087 9.0915 18.8753 9.7665Z"/>
</mask>
<path d="M18.8753 9.7665L18.3287 11.1634L22.1543 12.6603L20.1934 9.05051L18.8753 9.7665ZM15.167 9.7665L13.8421 9.06317L11.9071 12.7082L15.731 11.1564L15.167 9.7665ZM19.4219 8.36964C18.6775 8.07835 17.8674 7.9165 17.017 7.9165V10.9165C17.4832 10.9165 17.9231 11.0047 18.3287 11.1634L19.4219 8.36964ZM17.017 7.9165C16.1869 7.9165 15.369 8.06574 14.603 8.37658L15.731 11.1564C16.115 11.0006 16.5471 10.9165 17.017 10.9165V7.9165ZM16.4919 10.4698C16.5858 10.2929 16.7797 10.1665 17.017 10.1665V7.1665C15.6876 7.1665 14.4649 7.89007 13.8421 9.06317L16.4919 10.4698ZM17.017 10.1665C17.2566 10.1665 17.452 10.2887 17.5572 10.4825L20.1934 9.05051C19.5653 7.89429 18.3607 7.1665 17.017 7.1665V10.1665Z" fill="#C0C0D6" mask="url(#path-3-inside-1_0_140)"/>
<mask id="path-5-inside-2_0_140" fill="white">
<path d="M19.3582 23.6741C19.0082 24.6408 18.0832 25.3324 16.9999 25.3324C16.3416 25.3324 15.6916 25.0658 15.2332 24.5908C14.9666 24.3408 14.7666 24.0074 14.6499 23.6658C14.7582 23.6824 14.8666 23.6908 14.9832 23.7074C15.1749 23.7324 15.3749 23.7574 15.5749 23.7741C16.0499 23.8158 16.5332 23.8408 17.0166 23.8408C17.4916 23.8408 17.9666 23.8158 18.4332 23.7741C18.6082 23.7574 18.7832 23.7491 18.9499 23.7241C19.0832 23.7074 19.2166 23.6908 19.3582 23.6741Z"/>
</mask>
<path d="M19.3582 23.6741L20.7686 24.1848L21.5957 21.9005L19.183 22.1844L19.3582 23.6741ZM15.2332 24.5908L16.3127 23.5492L16.2866 23.5222L16.2591 23.4965L15.2332 24.5908ZM14.6499 23.6658L14.878 22.1832L12.43 21.8066L13.2304 24.1505L14.6499 23.6658ZM14.9832 23.7074L14.7711 25.1924L14.7802 25.1937L14.7892 25.1948L14.9832 23.7074ZM15.5749 23.7741L15.706 22.2798L15.6995 22.2793L15.5749 23.7741ZM18.4332 23.7741L18.5666 25.2682L18.5754 25.2673L18.4332 23.7741ZM18.9499 23.7241L18.7639 22.2357L18.7456 22.238L18.7274 22.2407L18.9499 23.7241ZM17.9478 23.1634C17.8049 23.5583 17.4287 23.8324 16.9999 23.8324V26.8324C18.7378 26.8324 20.2116 25.7233 20.7686 24.1848L17.9478 23.1634ZM16.9999 23.8324C16.7348 23.8324 16.4788 23.7214 16.3127 23.5492L14.1538 25.6323C14.9043 26.4101 15.9483 26.8324 16.9999 26.8324V23.8324ZM16.2591 23.4965C16.1956 23.4369 16.1181 23.3237 16.0694 23.1811L13.2304 24.1505C13.415 24.6912 13.7375 25.2446 14.2073 25.6851L16.2591 23.4965ZM14.4218 25.1483C14.5094 25.1618 14.5914 25.171 14.6447 25.1771C14.7059 25.184 14.7388 25.1877 14.7711 25.1924L15.1954 22.2225C15.111 22.2105 15.0314 22.2017 14.9822 22.1961C14.9251 22.1897 14.8987 22.1864 14.878 22.1832L14.4218 25.1483ZM14.7892 25.1948C14.9831 25.2201 15.2128 25.2491 15.4503 25.2689L15.6995 22.2793C15.537 22.2657 15.3667 22.2448 15.1772 22.22L14.7892 25.1948ZM15.4438 25.2684C15.9544 25.3132 16.4821 25.3408 17.0166 25.3408V22.3408C16.5843 22.3408 16.1454 22.3184 15.706 22.2798L15.4438 25.2684ZM17.0166 25.3408C17.5436 25.3408 18.0637 25.3131 18.5666 25.2682L18.2998 22.28C17.8694 22.3185 17.4396 22.3408 17.0166 22.3408V25.3408ZM18.5754 25.2673C18.6494 25.2603 18.9567 25.2399 19.1724 25.2075L18.7274 22.2407C18.6098 22.2583 18.5671 22.2546 18.291 22.2809L18.5754 25.2673ZM19.136 25.2125C19.2699 25.1958 19.398 25.1798 19.5335 25.1638L19.183 22.1844C19.0351 22.2018 18.8965 22.2191 18.7639 22.2357L19.136 25.2125Z" fill="#C0C0D6" mask="url(#path-5-inside-2_0_140)"/>
<path d="M23.8142 10.9297C23.8142 11.8018 23.1072 12.5087 22.2351 12.5087C21.363 12.5087 20.656 11.8018 20.656 10.9297C20.656 10.0575 21.363 9.35057 22.2351 9.35057C23.1072 9.35057 23.8142 10.0575 23.8142 10.9297Z" fill="#C0C0D6" stroke="#C0C0D6" stroke-width="1.5"/>
</svg>
