<svg width="21" height="21" viewBox="0 0 21 21" fill="none" xmlns="http://www.w3.org/2000/svg">
<path fill-rule="evenodd" clip-rule="evenodd" d="M10.3966 0.267738C9.23267 0.451767 8.21705 1.90626 7.54128 4.35684C7.35376 5.03681 7.14369 6.07744 7.05117 6.78467C7.03134 6.93624 7.02159 6.96769 6.99062 6.98016C6.97032 6.98834 6.85493 7.00833 6.7342 7.02457C5.28202 7.21993 3.76196 7.61661 2.69161 8.07955C1.37886 8.64729 0.573398 9.33835 0.333805 10.1024C0.13131 10.7482 0.326891 11.3847 0.90811 11.9713C1.91034 12.9829 4.0294 13.7751 6.77887 14.166C6.92417 14.1866 7.04462 14.2054 7.04654 14.2076C7.04846 14.2099 7.0721 14.3558 7.09908 14.5318C7.42342 16.6479 8.04523 18.4943 8.78515 19.5384C9.02169 19.8722 9.32148 20.1932 9.54686 20.354C9.96645 20.6533 10.4042 20.7845 10.8103 20.7326C11.2549 20.6757 11.6465 20.4622 12.0464 20.0585L12.2367 19.8663L12.2265 20.0018C12.2112 20.2044 12.2651 20.3249 12.4032 20.3967C12.4776 20.4354 12.6294 20.4206 12.7041 20.3673C12.825 20.2813 12.829 20.2593 12.853 19.5387C12.8691 19.057 12.8695 18.8703 12.8544 18.8246C12.8256 18.7373 12.7304 18.6525 12.6317 18.6262C12.5514 18.6049 12.5344 18.6081 12.2476 18.7C11.1891 19.0392 11.2676 19.0103 11.199 19.0862C11.0829 19.2147 11.0884 19.3743 11.2132 19.4991C11.3134 19.5993 11.4039 19.6154 11.5717 19.5628C11.6367 19.5425 11.6925 19.5285 11.6957 19.5317C11.7099 19.5458 11.3696 19.8487 11.2615 19.9183C10.7152 20.2699 10.2035 20.1803 9.66448 19.6386C8.82869 18.7987 8.13669 17.0025 7.74011 14.6437C7.70695 14.4463 7.68211 14.2825 7.68494 14.2795C7.68776 14.2766 7.81661 14.2864 7.97127 14.3014C10.7592 14.5719 13.8999 14.3692 16.3157 13.7626C17.2813 13.5202 18.0024 13.2649 18.7157 12.9127C19.3366 12.6062 19.7251 12.3424 20.0885 11.9806C20.4044 11.6661 20.587 11.3786 20.6933 11.0285C20.7372 10.884 20.743 10.8344 20.7439 10.5999C20.7446 10.4003 20.7367 10.3054 20.7123 10.2159C20.6042 9.82069 20.4006 9.49409 20.0539 9.15948L19.8783 8.99002L20.0402 8.9922C20.2811 8.99543 20.3841 8.93278 20.4219 8.76016C20.4498 8.63266 20.4044 8.51864 20.2924 8.43506C20.2318 8.38987 19.9933 8.3731 19.2967 8.36511L18.8232 8.35966L18.7557 8.4109C18.5903 8.53641 18.5933 8.60638 18.7902 9.22226C18.8765 9.49213 18.9639 9.76645 18.9843 9.83182C19.054 10.0544 19.2224 10.1516 19.4125 10.079C19.5748 10.017 19.6357 9.84466 19.5694 9.63468L19.5332 9.51984L19.6021 9.58207C19.8445 9.80105 20.0298 10.0751 20.1038 10.3244C20.1403 10.4473 20.142 10.7027 20.1072 10.8334C20.0111 11.1946 19.7224 11.5529 19.2553 11.8911C18.4972 12.4399 17.2032 12.9439 15.6974 13.2769C15.3458 13.3547 14.7773 13.4616 14.4383 13.5136L14.2766 13.5384L14.2869 13.491C14.3407 13.2432 14.3536 13.1209 14.3337 13.047C14.2806 12.8497 14.0243 12.7598 13.8616 12.8812C13.7564 12.9597 13.7348 13.0265 13.6722 13.4663C13.6472 13.6422 13.6919 13.6201 13.2737 13.6626C12.2757 13.7639 11.713 13.79 10.5116 13.7903C9.32622 13.7906 8.69397 13.7624 7.80849 13.6697C7.62321 13.6503 7.60146 13.6443 7.59383 13.6099C7.55417 13.4313 7.4671 12.2829 7.43685 11.5394C7.41321 10.9592 7.42428 9.48052 7.45603 8.9723C7.58242 6.95028 7.86445 5.30354 8.32753 3.88407C9.02109 1.75808 9.97358 0.65317 10.8931 0.907919C11.0661 0.955833 11.1659 1.00735 11.3447 1.141C12.3652 1.90354 13.2199 4.10981 13.6134 6.99722C13.6402 7.19336 13.6726 7.37949 13.6854 7.41086C13.6983 7.44222 13.7399 7.4916 13.7779 7.52058C13.8371 7.56568 13.8636 7.57329 13.9615 7.57329C14.0894 7.57329 14.1483 7.54214 14.2203 7.43631C14.2768 7.35334 14.2741 7.26807 14.1982 6.7364C13.8878 4.56271 13.3252 2.78214 12.5817 1.62063C12.3258 1.22084 11.9955 0.850404 11.7006 0.63256C11.51 0.491763 11.2307 0.355885 11.0251 0.303893C10.85 0.259618 10.5552 0.242665 10.3966 0.267738ZM10.0139 6.77552C9.83899 6.78895 9.78517 6.81533 9.71127 6.92389C9.62146 7.05582 9.67932 7.27628 9.82326 7.3506C9.88637 7.38319 9.92515 7.38672 10.1797 7.38317C10.4097 7.37995 10.4799 7.37269 10.5404 7.34595C10.6416 7.3012 10.6991 7.21637 10.709 7.09744C10.7192 6.97464 10.6763 6.88188 10.5798 6.81804C10.5163 6.77607 10.4867 6.76971 10.3403 6.76673C10.2484 6.76484 10.1015 6.76879 10.0139 6.77552ZM11.4485 6.81652C11.2981 6.89097 11.2403 7.06922 11.3161 7.22461C11.3749 7.345 11.4479 7.38163 11.6673 7.40087C12.0148 7.43132 12.088 7.42861 12.1705 7.38225C12.3651 7.27291 12.3762 7.0007 12.1916 6.86403C12.156 6.83766 12.0852 6.82155 11.9264 6.8037C11.6188 6.76916 11.54 6.77126 11.4485 6.81652ZM8.50856 6.8339C8.41801 6.84183 8.30899 6.85354 8.26627 6.85988C8.05814 6.89081 7.94824 7.14645 8.06636 7.32489C8.16098 7.46784 8.21193 7.47684 8.71228 7.43906C8.96831 7.41973 9.03616 7.39813 9.10144 7.31516C9.223 7.16066 9.18034 6.93698 9.01304 6.85165C8.9331 6.81089 8.8172 6.80681 8.50856 6.8339ZM6.94451 7.64187C6.94447 7.65445 6.93233 7.78817 6.91753 7.93904C6.75791 9.56623 6.76543 11.5744 6.93748 13.2668C6.95316 13.421 6.96081 13.5524 6.95448 13.5587C6.93686 13.5763 6.2222 13.462 5.70983 13.3596C3.99095 13.0161 2.60417 12.5009 1.74897 11.8882C1.43462 11.6629 1.11051 11.3128 0.982559 11.0602C0.924628 10.9458 0.871489 10.7214 0.8718 10.5924C0.87352 9.8821 1.70128 9.14029 3.13756 8.56191C4.12342 8.1649 5.2569 7.8763 6.76164 7.63914C6.90928 7.61586 6.94456 7.61639 6.94451 7.64187ZM13.963 8.02873C13.8701 8.06296 13.8242 8.10627 13.7828 8.19875C13.7517 8.26817 13.7502 8.29458 13.7671 8.47306C13.7774 8.58167 13.7859 8.71582 13.786 8.77114C13.7862 8.97852 13.8659 9.11008 14.0191 9.15598C14.1705 9.20132 14.3465 9.10472 14.3926 8.95105C14.4219 8.85327 14.3805 8.27411 14.3379 8.1871C14.2694 8.04687 14.1037 7.97688 13.963 8.02873ZM14.0564 9.66636C13.9799 9.69044 13.8982 9.7556 13.8644 9.81955C13.8194 9.90459 13.828 10.4283 13.8763 10.5376C13.9329 10.666 14.0653 10.7299 14.2158 10.7017C14.303 10.6853 14.4203 10.5781 14.4441 10.493C14.465 10.4181 14.4508 9.9726 14.4241 9.8658C14.407 9.79726 14.284 9.66723 14.2363 9.66723C14.2225 9.66723 14.1875 9.66352 14.1586 9.65901C14.1297 9.65447 14.0837 9.65778 14.0564 9.66636ZM14.0237 11.2888C13.9618 11.3142 13.8934 11.3742 13.8662 11.4268C13.8277 11.5011 13.783 12.0054 13.8071 12.0927C13.8307 12.1782 13.9204 12.2756 13.9993 12.3017C14.0869 12.3306 14.2089 12.3146 14.2785 12.265C14.3742 12.1969 14.4006 12.118 14.4266 11.8217C14.4482 11.5753 14.4475 11.546 14.4182 11.4693C14.3728 11.3503 14.2864 11.2892 14.1545 11.2826C14.0977 11.2798 14.0388 11.2826 14.0237 11.2888Z" fill="#017EFA" stroke="#017EFA" stroke-width="0.5"/>
</svg>
