<svg width="25" height="25" viewBox="0 0 25 25" fill="none" xmlns="http://www.w3.org/2000/svg">
<path d="M22.9165 15.3149V16.7561C22.9165 16.9952 22.906 17.2365 22.8852 17.4756C22.5929 20.7663 20.3071 22.9166 17.0088 22.9166H7.9908C6.32079 22.9166 4.91172 22.3746 3.89928 21.3919C3.50265 21.0274 3.16865 20.5992 2.90771 20.1084C3.25215 19.6896 3.63834 19.2312 4.01409 18.7717C4.65078 18.0093 5.2666 17.2563 5.65279 16.7665C6.22685 16.0564 7.7403 14.187 9.83824 15.0643C10.2662 15.2418 10.6419 15.4924 10.9864 15.7118C11.8318 16.2757 12.1867 16.4428 12.7816 16.119C13.4392 15.764 13.8671 15.0643 14.3159 14.3332C14.556 13.9458 14.7961 13.5709 15.057 13.2262C16.1947 11.7433 17.9482 11.3464 19.4095 12.2237C20.1401 12.6623 20.7663 13.2158 21.3508 13.7787C21.4761 13.904 21.6014 14.0199 21.7162 14.1348C21.8727 14.2915 22.3946 14.8136 22.9165 15.3149Z" fill="#828293"/>
<path opacity="0.4" d="M17.0194 2.08301H7.9909C4.45257 2.08301 2.08325 4.55808 2.08325 8.24354V16.7559C2.08325 18.0394 2.3755 19.1788 2.90782 20.1082C3.25226 19.6894 3.63845 19.231 4.0142 18.7704C4.65089 18.0091 5.2667 17.2561 5.65289 16.7664C6.22696 16.0562 7.7404 14.1868 9.83835 15.0641C10.2663 15.2416 10.642 15.4923 10.9865 15.7116C11.8319 16.2755 12.1868 16.4426 12.7817 16.1178C13.4393 15.7638 13.8672 15.0641 14.3161 14.332C14.5561 13.9456 14.7962 13.5707 15.0571 13.2261C16.1948 11.7431 17.9483 11.3463 19.4096 12.2235C20.1402 12.6621 20.7665 13.2156 21.351 13.7785C21.4762 13.9038 21.6015 14.0198 21.7163 14.1346C21.8728 14.2902 22.3947 14.8124 22.9166 15.3147V8.24354C22.9166 4.55808 20.5473 2.08301 17.0194 2.08301Z" fill="#828293"/>
<path d="M11.9316 9.16292C11.9316 10.6302 10.7093 11.8521 9.24284 11.8521C7.77741 11.8521 6.55518 10.6302 6.55518 9.16292C6.55518 7.69667 7.77741 6.47375 9.24284 6.47375C10.7093 6.47375 11.9316 7.69667 11.9316 9.16292Z" fill="#828293"/>
</svg>
