<svg width="27" height="27" viewBox="0 0 27 27" fill="none" xmlns="http://www.w3.org/2000/svg">
<rect x="0.5" y="0.5" width="26" height="26" rx="8.5" fill="#22222A"/>
<rect x="0.5" y="0.5" width="26" height="26" rx="8.5" stroke="#484851"/>
<path d="M6.82 17.5C6.732 17.5 6.664 17.476 6.616 17.428C6.568 17.372 6.544 17.304 6.544 17.224V9.388C6.544 9.3 6.568 9.232 6.616 9.184C6.664 9.128 6.732 9.1 6.82 9.1H9.868C10.46 9.1 10.972 9.196 11.404 9.388C11.844 9.58 12.184 9.868 12.424 10.252C12.664 10.628 12.784 11.1 12.784 11.668C12.784 12.236 12.664 12.708 12.424 13.084C12.184 13.46 11.844 13.744 11.404 13.936C10.972 14.128 10.46 14.224 9.868 14.224H7.744V17.224C7.744 17.304 7.716 17.372 7.66 17.428C7.612 17.476 7.544 17.5 7.456 17.5H6.82ZM7.732 13.216H9.808C10.4 13.216 10.844 13.084 11.14 12.82C11.436 12.556 11.584 12.172 11.584 11.668C11.584 11.172 11.44 10.788 11.152 10.516C10.864 10.244 10.416 10.108 9.808 10.108H7.732V13.216ZM13.4814 17.5C13.4174 17.5 13.3574 17.476 13.3014 17.428C13.2534 17.38 13.2294 17.324 13.2294 17.26C13.2294 17.228 13.2334 17.2 13.2414 17.176C13.2574 17.144 13.2694 17.12 13.2774 17.104L16.0254 13.228L13.4094 9.496C13.3854 9.448 13.3734 9.396 13.3734 9.34C13.3734 9.276 13.3974 9.22 13.4454 9.172C13.4934 9.124 13.5494 9.1 13.6134 9.1H14.3334C14.4134 9.1 14.4774 9.12 14.5254 9.16C14.5734 9.192 14.6174 9.24 14.6574 9.304L16.7694 12.304L18.8694 9.304C18.9014 9.24 18.9414 9.192 18.9894 9.16C19.0454 9.12 19.1094 9.1 19.1814 9.1H19.8654C19.9294 9.1 19.9854 9.124 20.0334 9.172C20.0814 9.22 20.1054 9.276 20.1054 9.34C20.1054 9.396 20.0894 9.448 20.0574 9.496L17.4774 13.24L20.2134 17.104C20.2294 17.12 20.2414 17.144 20.2494 17.176C20.2574 17.2 20.2614 17.228 20.2614 17.26C20.2614 17.324 20.2374 17.38 20.1894 17.428C20.1414 17.476 20.0814 17.5 20.0094 17.5H19.2774C19.2054 17.5 19.1414 17.48 19.0854 17.44C19.0374 17.4 18.9934 17.356 18.9534 17.308L16.7214 14.188L14.5014 17.308C14.4614 17.356 14.4174 17.4 14.3694 17.44C14.3214 17.48 14.2574 17.5 14.1774 17.5H13.4814Z" fill="white" fill-opacity="0.8"/>
</svg>
