<svg width="17" height="17" viewBox="0 0 17 17" fill="none" xmlns="http://www.w3.org/2000/svg">
<path d="M13.4584 5.66663H3.54175C3.15216 5.66663 2.83341 5.34788 2.83341 4.95829C2.83341 4.56871 3.15216 4.24996 3.54175 4.24996H13.4584C13.848 4.24996 14.1667 4.56871 14.1667 4.95829C14.1667 5.34788 13.848 5.66663 13.4584 5.66663ZM12.0417 1.41663H4.95841C4.56883 1.41663 4.25008 1.73538 4.25008 2.12496C4.25008 2.51454 4.56883 2.83329 4.95841 2.83329H12.0417C12.4313 2.83329 12.7501 2.51454 12.7501 2.12496C12.7501 1.73538 12.4313 1.41663 12.0417 1.41663ZM15.5834 8.49996V14.1666C15.5834 14.9458 14.9459 15.5833 14.1667 15.5833H2.83341C2.05425 15.5833 1.41675 14.9458 1.41675 14.1666V8.49996C1.41675 7.72079 2.05425 7.08329 2.83341 7.08329H14.1667C14.9459 7.08329 15.5834 7.72079 15.5834 8.49996ZM10.7597 11.0216L7.08341 9.01704V13.6425L10.7597 11.645C11.0076 11.5104 11.0076 11.1562 10.7597 11.0216Z" fill="white" fill-opacity="0.8"/>
</svg>
